<?xml version="1.0" encoding="utf-8"?>
<!-- Generator: Adobe Illustrator 22.1.0, SVG Export Plug-In . SVG Version: 6.00 Build 0)  -->
<svg version="1.1" id="Layer_1" xmlns="http://www.w3.org/2000/svg" xmlns:xlink="http://www.w3.org/1999/xlink" x="0px" y="0px"
	 viewBox="0 0 1494 380" style="enable-background:new 0 0 1494 380;" xml:space="preserve">
<style type="text/css">
	.st0{clip-path:url(#SVGID_2_);}
	.st1{fill:#FFFFFF;}
	.st2{fill:#04E061;}
	.st3{fill:#FF4053;}
	.st4{fill:#965EEB;}
	.st5{fill:#00AAFF;}
</style>
<g>
	<defs>
		<rect id="SVGID_1_" width="1494" height="380"/>
	</defs>
	<clipPath id="SVGID_2_">
		<use xlink:href="#SVGID_1_"  style="overflow:visible;"/>
	</clipPath>
	<g class="st0">
		<path class="st1" d="M571.1,8.9L442.2,345.7h69.3l26.7-70.3h136.8l26.6,70.3h68.7L642,8.9H571.1z M561.7,213.6l45.1-118.5
			l44.8,118.5H561.7z"/>
		<path class="st1" d="M1371.4,104.9c-24.2,0-47.9,7.2-68.1,20.6c-20.1,13.5-35.8,32.6-45.1,55c-9.3,22.4-11.7,47-7,70.8
			c4.7,23.8,16.4,45.6,33.5,62.7c17.1,17.1,39,28.8,62.7,33.5c23.8,4.7,48.4,2.3,70.8-7c22.4-9.3,41.5-25,55-45.1
			c13.5-20.1,20.7-43.8,20.7-68.1c0-32.5-12.9-63.7-35.9-86.6C1435.1,117.8,1403.9,104.9,1371.4,104.9z M1371.4,287.1
			c-11.8,0-23.3-3.5-33.2-10.1c-9.8-6.6-17.5-15.9-22-26.8c-4.5-10.9-5.7-22.9-3.4-34.5c2.3-11.6,8-22.2,16.3-30.6
			c8.4-8.3,19-14,30.6-16.3c11.6-2.3,23.6-1.1,34.5,3.4c10.9,4.5,20.2,12.2,26.8,22c6.5,9.8,10,21.4,10,33.2
			c0,7.8-1.5,15.6-4.5,22.9c-3,7.2-7.4,13.8-12.9,19.4c-5.5,5.5-12.1,9.9-19.4,12.9C1387,285.6,1379.3,287.1,1371.4,287.1z"/>
		<path class="st1" d="M853,258.8L797,109.1h-66.1l90,236.6h65.5L975,109.1h-66.1L853,258.8z"/>
		<path class="st1" d="M1182.8,46.2h-62.9v62.9h-36.8v56.5h36.8v100.7c0,57,31.4,81.5,75.7,81.5c15,0.2,29.9-2.7,43.7-8.5v-58.6
			c-7.5,2.8-15.5,4.2-23.5,4.3c-19.1,0-33-7.5-33-33v-86.4h56.5v-56.5h-56.5V46.2z"/>
		<path class="st1" d="M1026.7,92.1c25.3,0,45.8-20.5,45.8-45.8c0-25.3-20.5-45.8-45.8-45.8c-25.3,0-45.8,20.5-45.8,45.8
			C980.8,71.5,1001.3,92.1,1026.7,92.1z"/>
		<path class="st1" d="M1058.1,109.1h-62.9v236.6h62.9V109.1z"/>
		<path class="st2" d="M123,379.3c67.7,0,122.6-54.9,122.6-122.6c0-67.7-54.9-122.6-122.6-122.6C55.3,134.2,0.4,189,0.4,256.7
			C0.4,324.4,55.3,379.3,123,379.3z"/>
		<path class="st3" d="M335.6,363.8c40.9,0,74.1-33.2,74.1-74.1s-33.2-74.1-74.1-74.1s-74.1,33.2-74.1,74.1S294.7,363.8,335.6,363.8
			z"/>
		<path class="st4" d="M146.4,118.2c25.3,0,45.8-20.5,45.8-45.8s-20.5-45.8-45.8-45.8c-25.3,0-45.8,20.5-45.8,45.8
			S121.1,118.2,146.4,118.2z"/>
		<path class="st5" d="M306.8,199.7c55,0,99.6-44.6,99.6-99.6c0-55-44.6-99.6-99.6-99.6c-55,0-99.6,44.6-99.6,99.6
			C207.2,155.1,251.8,199.7,306.8,199.7z"/>
	</g>
</g>
</svg>
